<?xml version="1.0" encoding="utf-8"?>
<!-- Generator: Adobe Illustrator 25.2.3, SVG Export Plug-In . SVG Version: 6.00 Build 0)  -->
<svg version="1.1" id="Layer_1" xmlns="http://www.w3.org/2000/svg" xmlns:xlink="http://www.w3.org/1999/xlink" x="0px" y="0px"
	 viewBox="0 0 303.2 227.33" style="enable-background:new 0 0 303.2 227.33;" xml:space="preserve">
<style type="text/css">
	.st0{fill:#2D6F37;}
	.st1{fill:#8E6723;}
	.st2{fill:#6A4D1B;}
	.st3{fill:url(#SVGID_1_);}
	.st4{fill:#FEC461;}
	.st5{fill:#9F7728;}
	.st6{fill:#2F7037;}
	.st7{fill:url(#SVGID_2_);}
	.st8{fill:#FFC222;}
	.st9{fill:url(#SVGID_3_);}
	.st10{fill:url(#SVGID_4_);}
	.st11{fill:url(#SVGID_5_);}
	.st12{fill:url(#SVGID_6_);}
</style>
<g>
	<g>
		<polygon class="st0" points="76.03,202.82 63.07,202.82 62.77,204.88 68.09,204.88 65.76,220.45 68.06,220.45 70.39,204.88 
			75.68,204.88 		"/>
		<path class="st0" d="M76.5,208.07c-1.19,0-2.21,0.39-3.12,1.18c-1.5,1.37-2.59,4.15-2.59,6.63c0,4.24,2.25,4.87,3.59,4.87
			c1.66,0,3.02-0.73,3.93-2.1c1.07-1.58,1.73-3.81,1.73-5.82C80.04,209.8,78.75,208.07,76.5,208.07z M74.66,218.79
			c-0.77,0-1.66-0.33-1.66-2.86c0-3.09,1.46-5.9,3.06-5.9c0.82,0,1.76,0.32,1.76,2.8c0,1.68-0.41,3.27-1.17,4.61
			C76.14,218.35,75.49,218.79,74.66,218.79z"/>
		<path class="st0" d="M87.84,208.09c-1.1,0.05-2.11,0.66-2.95,1.75c-0.1,0.14-0.2,0.27-0.29,0.4l0.57-3.59l-2.15,0.39l-1.5,10.11
			c-0.52-0.43-0.66-0.59-1.04-1.03l-0.6-0.72l-0.37,2.51l0.14,0.15c0.55,0.58,0.86,0.84,1.51,1.27l-1.18,8h2.2l1.03-6.86
			c0.41,0.14,0.72,0.21,1.16,0.23c1.41,0.11,2.87-0.45,3.81-1.45c1.54-1.57,2.57-4.14,2.73-6.87c0.09-1.52-0.23-2.72-0.94-3.48
			C89.44,208.32,88.67,208.04,87.84,208.09z M87.51,210.08c0.89-0.07,1.12,0.77,1.16,1.26c0.12,1.3-0.15,3-0.74,4.55
			c-0.51,1.34-1.48,2.93-3.19,2.93c-0.5,0-0.76-0.05-1.23-0.3l0.64-4.44c0.58-1.26,0.92-1.85,1.59-2.73
			C86.5,210.36,86.96,210.13,87.51,210.08z"/>
		<path class="st0" d="M98.32,210.45l0.37,0.07l0.64-2.1l-0.38-0.13c-0.41-0.15-0.67-0.18-1.1-0.15c-1.19,0.11-2.08,0.8-3.12,2.55
			c0.05-1.1-0.14-1.91-0.54-2.4l-0.18-0.22l-1.9,0.62l0.2,0.43c0.19,0.38,0.22,0.59,0.24,0.92c0.05,0.84-0.03,2.02-0.22,3.24
			l-1.07,7.16h2.2l0.86-5.9c0.5-1.04,0.78-1.51,1.28-2.33c0.76-1.18,1.37-1.72,2.02-1.81C97.83,210.39,98.01,210.39,98.32,210.45z"
			/>
		<path class="st0" d="M106.75,220.54l0.25-0.05l0.51-1.75h-0.56c-0.1,0-0.21,0.01-0.29,0.02c-0.04,0.01-0.06,0.01-0.09,0.01
			c-0.15,0-0.48,0-0.48-0.89c0-0.58,0.07-1.23,0.28-2.58l0.98-6.67l-0.36-0.09c-1.35-0.34-1.9-0.43-2.94-0.43
			c-3.68,0-6.56,4.03-6.56,9.18c0,0.95,0.28,1.81,0.79,2.43c0.53,0.65,1.26,1.01,2.07,1.01c0.05,0,0.1,0,0.15-0.01
			c1.04-0.05,1.87-0.47,2.7-1.32c0.31-0.31,0.56-0.6,0.81-0.99c0.04,0.68,0.23,1.21,0.57,1.58c0.36,0.4,0.86,0.6,1.5,0.6
			C106.32,220.6,106.46,220.6,106.75,220.54z M100.87,218.74c-0.65,0.08-1.09-0.46-1.15-1.4c-0.08-1.25,0.16-2.71,0.66-4.11
			c0.69-1.93,1.76-3,3.18-3.16c0.14-0.01,0.28-0.02,0.42-0.02c0.28,0,0.57,0.03,0.97,0.11l-0.7,4.67c-0.72,1.44-1.01,1.96-1.49,2.57
			C102.19,218.16,101.5,218.66,100.87,218.74z"/>
		<path class="st0" d="M113.97,219.7l-2.72-1.18c-0.65-0.28-0.67-0.4-0.67-0.44c-0.01-0.11,0.02-0.22,0.72-0.74
			c0.15,0.02,0.27,0.03,0.34,0.03c2.63,0.23,4.74-2,4.93-5.13c0.02-0.52,0.01-0.91-0.11-1.49c0.54-0.5,1.06-0.72,1.64-0.72h0.67
			l0.29-2.05l-0.4-0.07c-0.19-0.03-0.34-0.03-0.45-0.03c-0.88,0-1.68,0.45-2.48,1.41c-0.64-0.81-1.51-1.19-2.77-1.19
			c-2.53,0-4.59,2.46-4.59,5.49c0,1.36,0.44,2.38,1.33,3.08c-0.93,0.64-1.27,1-1.3,1.71c-0.05,0.71,0.26,1.14,0.97,1.54
			c-0.44,0.18-0.77,0.33-1.16,0.56c-1.4,0.77-2.24,1.94-2.24,3.13c0,2.22,2.05,3.72,5.1,3.72c3.08,0,5.59-2.04,5.59-4.54
			C116.66,221.24,115.58,220.43,113.97,219.7z M111.33,220.84c0.39,0.18,0.71,0.31,0.71,0.31c2.25,0.96,2.46,1.28,2.46,1.89
			c0,1.4-1.37,2.37-3.34,2.37c-1.73,0-2.99-0.8-2.99-1.91c0-0.7,0.52-1.27,0.95-1.62c0.46-0.37,0.94-0.61,2.08-1.11L111.33,220.84z
			 M112.86,209.9c0.4,0,0.72,0.13,0.97,0.41c0.37,0.4,0.54,1.08,0.48,1.91c-0.16,2.08-1.04,3.43-2.24,3.43l-0.09,0
			c-1.19-0.05-1.37-1.35-1.37-2.12C110.61,211.56,111.64,209.9,112.86,209.9z"/>
		<path class="st0" d="M126.28,218.76c-0.03,0.01-0.07,0.01-0.09,0.01c-0.15,0-0.48,0-0.48-0.89c0-0.58,0.07-1.23,0.28-2.58
			l0.97-6.67l-0.36-0.09c-1.35-0.34-1.9-0.43-2.95-0.43c-3.68,0-6.56,4.03-6.56,9.18c0,0.95,0.28,1.81,0.79,2.43
			c0.53,0.65,1.26,1.01,2.06,1.01c0.05,0,0.1,0,0.15-0.01c1.04-0.05,1.88-0.47,2.7-1.32c0.31-0.31,0.56-0.6,0.81-0.99
			c0.04,0.68,0.24,1.21,0.58,1.58c0.36,0.4,0.86,0.6,1.5,0.6c0.26,0,0.4,0,0.69-0.06l0.25-0.05l0.51-1.75h-0.56
			C126.47,218.74,126.37,218.75,126.28,218.76z M120.49,218.74c-0.65,0.08-1.09-0.46-1.15-1.4c-0.08-1.25,0.16-2.71,0.67-4.11
			c0.69-1.93,1.76-3,3.17-3.16c0.15-0.01,0.28-0.02,0.42-0.02c0.28,0,0.57,0.03,0.97,0.11l-0.7,4.67c-0.72,1.44-1.01,1.96-1.5,2.57
			C121.81,218.16,121.12,218.66,120.49,218.74z"/>
		<path class="st0" d="M139.03,208.14c-1.01,0-2.16,0.61-2.93,1.56c-0.1,0.13-0.2,0.26-0.29,0.38l1.31-8.55h-2.18l-2.67,17.86
			l0.17,0.15c0.89,0.75,1.54,1.04,2.58,1.14c0.21,0.02,0.42,0.04,0.62,0.04c2.21,0,4.05-1.33,5.2-3.75
			c0.74-1.54,1.17-3.45,1.17-5.25C142.01,209.45,140.92,208.14,139.03,208.14z M138.6,210.13c0.81-0.1,1.22,0.54,1.22,1.91
			c0,1.01-0.32,2.63-0.74,3.77c-0.73,1.99-1.67,2.89-3.13,3.03c-0.1,0.01-0.19,0.01-0.28,0.01c-0.36,0-0.67-0.09-1.09-0.33l0.69-4.5
			c0.79-1.58,1.1-2.11,1.61-2.76C137.43,210.59,138.02,210.19,138.6,210.13z"/>
		<path class="st0" d="M149.25,216.8c-1.09,1.37-1.92,1.95-2.78,1.95c-0.05,0-0.1,0-0.15-0.01c-1.02-0.06-1.68-1.04-1.68-2.5
			c0-0.06,0-0.11,0-0.16c4.13-1.48,6.15-3.16,6.34-5.26c0.07-0.73-0.13-1.38-0.59-1.87c-0.52-0.57-1.34-0.88-2.31-0.88
			c-1.94,0-3.84,1.58-4.84,4.02c-0.46,1.12-0.8,2.68-0.8,3.72c0,1.62,0.16,2.44,0.61,3.23c0.62,1.09,1.68,1.72,2.9,1.72
			c1.78,0,3.34-0.95,4.5-2.75l0.16-0.25l-1.04-1.38L149.25,216.8z M147.99,210c0.3,0,0.54,0.08,0.7,0.24
			c0.14,0.14,0.2,0.33,0.19,0.58c-0.04,0.72-0.4,1.41-2.07,2.42c-0.74,0.43-1.29,0.72-1.97,1.02c0.18-1.07,0.38-1.63,0.79-2.41
			C146.24,210.73,147.17,210,147.99,210z"/>
		<path class="st0" d="M158.04,210.45l0.38,0.07l0.64-2.1l-0.38-0.13c-0.41-0.15-0.67-0.18-1.1-0.15c-1.19,0.11-2.08,0.8-3.12,2.55
			c0.05-1.1-0.13-1.91-0.54-2.4l-0.18-0.22l-1.9,0.62l0.2,0.43c0.18,0.38,0.22,0.59,0.24,0.92c0.05,0.84-0.03,2.02-0.22,3.24
			l-1.07,7.16h2.2l0.86-5.9c0.49-1.04,0.77-1.51,1.27-2.33c0.77-1.18,1.37-1.72,2.02-1.81
			C157.54,210.39,157.73,210.39,158.04,210.45z"/>
		<path class="st0" d="M164.16,216.8c-1.09,1.37-1.92,1.95-2.77,1.95c-0.05,0-0.1,0-0.15-0.01c-1.02-0.06-1.68-1.04-1.68-2.5
			c0-0.06,0-0.11,0-0.16c4.13-1.48,6.15-3.16,6.34-5.26c0.07-0.73-0.13-1.38-0.59-1.88c-0.52-0.57-1.34-0.88-2.31-0.88
			c-1.94,0-3.83,1.58-4.84,4.02c-0.46,1.12-0.79,2.68-0.79,3.72c0,1.62,0.15,2.44,0.62,3.23c0.62,1.09,1.67,1.72,2.89,1.72
			c1.78,0,3.33-0.95,4.5-2.75l0.16-0.25l-1.04-1.38L164.16,216.8z M162.91,210c0.3,0,0.55,0.08,0.7,0.24
			c0.13,0.14,0.2,0.33,0.19,0.58c-0.04,0.72-0.41,1.41-2.08,2.42c-0.73,0.44-1.28,0.73-1.97,1.02c0.18-1.07,0.37-1.63,0.78-2.4
			C161.15,210.73,162.09,210,162.91,210z"/>
		<path class="st0" d="M174.82,213.02c0.54-0.66,0.91-1.6,0.91-2.29c0-1.59-1-2.62-2.57-2.62c-1.21,0-2.49,0.84-3.5,2.3
			c-0.1,0.13-0.18,0.25-0.26,0.37l1.45-9.24h-2.18l-2.84,18.91H168l0.88-6.04c1.75-3.01,2.84-4.22,3.89-4.31
			c0.49-0.05,0.82,0.26,0.82,0.76c0,1.16-1.12,2.25-4.14,4.04l-0.37,0.22l3.4,5.32h2.61l-3.31-5.02
			C173.42,214.4,174.05,213.89,174.82,213.02z"/>
		<path class="st0" d="M190.17,218.25c-0.72,0.36-1.1,0.47-1.68,0.47c-0.7,0-0.96-0.27-0.96-0.99c0-0.24,0.05-0.78,0.12-1.19
			l0.92-6.22h2.84l0.28-1.88h-2.84l0.44-2.84h-1.64l-0.43,1.91c-0.21,0.89-0.39,1.04-1.27,1.06l-1.58,0.07l-0.19,1.29
			c-0.09-0.36-0.26-0.69-0.51-0.96c-0.52-0.57-1.34-0.88-2.32-0.88c-1.93,0-3.83,1.58-4.83,4.02c-0.47,1.12-0.8,2.68-0.8,3.72
			c0,1.62,0.15,2.44,0.61,3.23c0.62,1.09,1.68,1.72,2.9,1.72c1.78,0,3.33-0.95,4.5-2.75l0.16-0.25l-1.04-1.38l-0.34,0.42
			c-1.09,1.37-1.92,1.95-2.78,1.95c-0.05,0-0.09,0-0.15-0.01c-1.02-0.06-1.68-1.04-1.68-2.5c0-0.06,0-0.11,0-0.16
			c4.13-1.49,6.15-3.16,6.34-5.26c0.01-0.18,0.01-0.35,0-0.51h2.14l-0.9,6.01c-0.1,0.53-0.15,1.03-0.18,1.56
			c-0.06,0.84,0.16,1.55,0.63,2.06c0.46,0.5,1.14,0.76,1.96,0.76c1.09,0,1.93-0.22,2.92-0.77l0.29-0.16l-0.47-1.76L190.17,218.25z
			 M178.88,211.86c0.62-1.13,1.55-1.86,2.37-1.86c0.3,0,0.55,0.08,0.7,0.24c0.14,0.14,0.2,0.33,0.19,0.58
			c-0.04,0.72-0.4,1.41-2.08,2.42c-0.73,0.43-1.28,0.72-1.97,1.02C178.28,213.19,178.47,212.64,178.88,211.86z"/>
		<path class="st0" d="M194.68,205.98c0.82,0,1.44-0.7,1.44-1.62c0-0.79-0.49-1.31-1.21-1.31c-0.81,0-1.47,0.72-1.47,1.6
			C193.44,205.46,193.93,205.98,194.68,205.98z"/>
		<polygon class="st0" points="191.36,220.45 193.55,220.45 195.35,208.42 193.14,208.42 		"/>
		<path class="st0" d="M202.84,208.11c-0.08,0-0.15,0-0.24,0.01c-1.36,0.11-2.42,0.83-3.52,2.47c0-0.01,0-0.02,0-0.03v-0.54
			c0-0.68-0.18-1.3-0.49-1.71l-0.18-0.23l-1.91,0.62l0.2,0.43c0.18,0.39,0.22,0.59,0.24,0.92c0.05,0.84-0.03,2.02-0.22,3.24
			l-1.07,7.16h2.2l0.91-6.28c1.35-2.74,2.34-3.9,3.4-3.98c0.06,0,0.11-0.01,0.16-0.01c0.32,0,0.69,0,0.69,1.05
			c0,0.21-0.05,0.78-0.12,1.22l-1.2,8.01h2.2l1.18-7.97c0.08-0.45,0.13-0.87,0.16-1.26c0.09-1.01-0.14-1.84-0.64-2.39
			C204.17,208.36,203.57,208.11,202.84,208.11z"/>
		<path class="st0" d="M209.19,205.98c0.83,0,1.44-0.7,1.44-1.62c0-0.79-0.49-1.31-1.21-1.31c-0.81,0-1.47,0.72-1.47,1.6
			C207.95,205.46,208.44,205.98,209.19,205.98z"/>
		<polygon class="st0" points="207.65,208.42 205.86,220.45 208.06,220.45 209.85,208.42 		"/>
		<polygon class="st0" points="218.62,209.43 218.19,208.42 211.11,208.42 210.83,210.31 215.54,210.31 208.99,219.47 
			209.43,220.45 217.15,220.45 217.42,218.48 212.15,218.48 		"/>
		<polygon class="st0" points="217.97,220.45 220.17,220.45 221.95,208.42 219.75,208.42 		"/>
		<path class="st0" d="M221.52,203.05c-0.81,0-1.47,0.72-1.47,1.6c0,0.81,0.49,1.34,1.24,1.34c0.82,0,1.44-0.7,1.44-1.62
			C222.73,203.58,222.24,203.05,221.52,203.05z"/>
		<path class="st0" d="M233.73,216.8c-1.09,1.37-1.92,1.95-2.78,1.95c-0.05,0-0.09,0-0.14-0.01c-1.02-0.06-1.68-1.04-1.68-2.5
			c0-0.06,0-0.11,0-0.16c4.13-1.49,6.15-3.16,6.34-5.26c0.07-0.73-0.13-1.38-0.58-1.87c-0.52-0.57-1.34-0.88-2.31-0.88
			c-1.94,0-3.83,1.58-4.84,4.02c-0.46,1.12-0.8,2.68-0.8,3.72c0,1.62,0.16,2.44,0.62,3.23c0.62,1.09,1.68,1.72,2.89,1.72
			c1.78,0,3.34-0.95,4.5-2.75l0.16-0.25l-1.04-1.38L233.73,216.8z M232.47,210c0.3,0,0.54,0.08,0.7,0.24
			c0.13,0.14,0.2,0.33,0.19,0.58c-0.04,0.72-0.4,1.41-2.07,2.42c-0.74,0.43-1.28,0.72-1.97,1.02c0.19-1.07,0.38-1.63,0.79-2.41
			C230.72,210.73,231.65,210,232.47,210z"/>
		<path class="st0" d="M244.39,213.02c0.54-0.66,0.91-1.6,0.91-2.29c0-1.59-1.01-2.62-2.57-2.62c-1.21,0-2.49,0.84-3.51,2.3
			c-0.1,0.13-0.17,0.25-0.26,0.37l1.45-9.24h-2.18l-2.84,18.91h2.17l0.88-6.04c1.75-3.01,2.84-4.22,3.89-4.31
			c0.49-0.05,0.82,0.26,0.82,0.76c0,1.16-1.12,2.25-4.14,4.04l-0.38,0.22l3.41,5.32h2.61l-3.31-5.02
			C242.98,214.4,243.61,213.89,244.39,213.02z"/>
		<polygon class="st0" points="249.07,208.42 246.87,208.42 245.09,220.45 247.29,220.45 		"/>
		<path class="st0" d="M248.41,205.98c0.82,0,1.44-0.7,1.44-1.62c0-0.79-0.49-1.31-1.21-1.31c-0.81,0-1.47,0.72-1.47,1.6
			C247.17,205.46,247.66,205.98,248.41,205.98z"/>
		<path class="st0" d="M257.32,208.1l-3.2,7.28c-0.22,0.52-0.34,0.77-0.44,1c-0.03,0.06-0.06,0.12-0.09,0.18
			c-0.06-0.33-0.1-0.58-0.2-1.09l-1.52-7.38l-2.14,0.62l2.41,10.83l-0.34,0.66c-0.9,1.8-1.93,3.31-2.83,4.14
			c-0.45,0.44-1.05,0.65-1.83,0.65c-0.14,0-0.29-0.01-0.4-0.02c-0.09-0.02-0.18-0.03-0.28-0.04c-0.06-0.01-0.13-0.01-0.21-0.02
			l-0.5-0.07l0.09,1.98l0.34,0.05c0.54,0.08,0.81,0.1,1.11,0.1c2.26,0,3.69-1.2,5.66-4.75c0.62-1.13,1.22-2.31,1.62-3.22l4.75-10.26
			L257.32,208.1z"/>
		<path class="st0" d="M263.89,208.07c-1.19,0-2.21,0.39-3.12,1.18c-1.5,1.37-2.6,4.15-2.6,6.63c0,4.24,2.25,4.87,3.59,4.87
			c1.66,0,3.02-0.73,3.93-2.1c1.07-1.58,1.73-3.81,1.73-5.82C267.43,209.8,266.14,208.07,263.89,208.07z M262.05,218.79
			c-0.77,0-1.65-0.33-1.65-2.86c0-3.09,1.46-5.9,3.06-5.9c0.82,0,1.76,0.32,1.76,2.8c0,1.68-0.41,3.27-1.17,4.61
			C263.53,218.35,262.88,218.79,262.05,218.79z"/>
		<path class="st0" d="M275.92,208.43l-0.37-0.13c-0.41-0.15-0.67-0.18-1.1-0.15c-1.19,0.11-2.07,0.8-3.11,2.55
			c0.05-1.1-0.14-1.91-0.54-2.4l-0.18-0.22l-1.9,0.62l0.2,0.43c0.19,0.39,0.22,0.59,0.24,0.92c0.05,0.84-0.03,2.02-0.23,3.24
			l-1.07,7.16h2.2l0.86-5.9c0.5-1.04,0.78-1.52,1.28-2.33c0.76-1.18,1.37-1.72,2.03-1.81c0.2-0.02,0.38-0.02,0.69,0.05l0.37,0.07
			L275.92,208.43z"/>
		<path class="st0" d="M294.2,209.43l-0.43-1.01h-7.09l-0.27,1.88h4.71l-6.5,9.09l0.24-0.77l-0.67,0.11
			c-0.13,0.02-0.26,0.02-0.34,0.02c-0.16,0-0.45,0-0.45-0.89c0-0.65,0.09-1.56,0.25-2.58l1.02-6.88h-2.17l-0.96,6.38
			c-1.48,2.81-2.36,3.83-3.38,3.89c-0.44,0-0.71-0.29-0.71-0.76c0-0.54,0.03-0.77,0.1-1.27l1.22-8.23h-2.2l-1.18,7.98
			c-0.08,0.5-0.13,0.98-0.16,1.42c-0.06,0.96,0.16,1.74,0.64,2.25c0.41,0.45,1.02,0.68,1.75,0.68c1.01,0,1.9-0.4,2.72-1.22
			c0.33-0.32,0.61-0.66,0.93-1.17c0.04,0.7,0.23,1.25,0.58,1.64c0.36,0.39,0.87,0.6,1.49,0.6c0.29,0,0.4,0,0.7-0.06l0.24-0.05
			l0.31-0.99l0.42,0.94h7.72l0.27-1.96h-5.27L294.2,209.43z"/>
		<path class="st0" d="M294.64,217.56c-0.78,0-1.42,0.68-1.49,1.6c-0.04,0.83,0.44,1.42,1.19,1.46l0.06,0c0.86,0,1.52-0.75,1.52-1.7
			C295.93,218.14,295.39,217.56,294.64,217.56z M294.4,220.2L294.4,220.2L294.4,220.2L294.4,220.2z"/>
		<path class="st0" d="M298.28,217.56c-0.78,0-1.42,0.68-1.49,1.6c-0.04,0.83,0.44,1.42,1.19,1.46l0.06,0c0.86,0,1.53-0.75,1.53-1.7
			C299.56,218.14,299.02,217.56,298.28,217.56z M298.04,220.2L298.04,220.2L298.04,220.2L298.04,220.2z"/>
		<path class="st0" d="M301.91,217.56c-0.76,0-1.42,0.7-1.49,1.6c-0.04,0.83,0.44,1.42,1.19,1.46l0.06,0c0.86,0,1.53-0.75,1.53-1.7
			C303.2,218.14,302.66,217.56,301.91,217.56z M301.67,220.2L301.67,220.2L301.67,220.2L301.67,220.2z"/>
		<path class="st0" d="M113.63,207.17c1.82,0,2.79-1.16,2.81-2.85h-1.58c-0.04,0.62-0.4,1.22-1.22,1.22c-0.7,0-1.08-0.52-1.19-1.22
			h-1.58C110.89,205.93,111.77,207.17,113.63,207.17z"/>
	</g>
	<g>
		<g>
			<path class="st1" d="M220.71,90.36c-0.3-0.06-0.44-0.61-0.3-1.21c0.13-0.61,0.49-1.05,0.78-0.98c0.3,0.06,0.42,0.61,0.3,1.21
				C221.34,89.99,221,90.43,220.71,90.36z"/>
			<path class="st2" d="M221.21,87.63c0,0-0.92,2.2-0.62,3.1C220.6,90.73,218.5,89.01,221.21,87.63z"/>
		</g>
		<g>
			<path class="st1" d="M222.97,99.83c-0.33-0.08-0.48-0.67-0.33-1.36c0.17-0.69,0.56-1.17,0.88-1.1c0.34,0.08,0.48,0.69,0.34,1.37
				C223.7,99.41,223.31,99.9,222.97,99.83z"/>
			<path class="st2" d="M223.53,96.77c0,0-1.01,2.47-0.68,3.48C222.85,100.25,220.5,98.31,223.53,96.77z"/>
		</g>
		<g>
			<path class="st1" d="M229.35,94.3c-0.29-0.06-0.43-0.6-0.29-1.2c0.13-0.6,0.48-1.03,0.78-0.96c0.29,0.06,0.41,0.61,0.28,1.19
				C229.96,93.93,229.65,94.35,229.35,94.3z"/>
			<path class="st2" d="M229.84,91.58c0,0-0.88,2.19-0.61,3.09C229.23,94.68,227.15,92.97,229.84,91.58z"/>
		</g>
		
			<linearGradient id="SVGID_1_" gradientUnits="userSpaceOnUse" x1="136.2468" y1="-89.7747" x2="166.866" y2="-89.7747" gradientTransform="matrix(1 0 0 1 86.5156 184.3668)">
			<stop  offset="0" style="stop-color:#FFF33E"/>
			<stop  offset="0.0144" style="stop-color:#FFEF3D"/>
			<stop  offset="0.1513" style="stop-color:#FFDB31"/>
			<stop  offset="0.2914" style="stop-color:#FFCD28"/>
			<stop  offset="0.4352" style="stop-color:#FFC523"/>
			<stop  offset="0.5883" style="stop-color:#FFC222"/>
			<stop  offset="0.9995" style="stop-color:#FFF6F1"/>
		</linearGradient>
		<path class="st3" d="M236.64,82.14c0,0-5,3.77-7.18,5.26c0,0-11.18,6.88-4.65,16.21c0,0,5.21,7.24,9.96,6.56l5.24-2.35l1.88-2.05
			c0,0,8.96-9.94,10.38-13.8c0,0,4.64-10.04-5.06-12.99c0,0-1.85-0.12-3.64,1.13C243.57,80.1,240.07,78.9,236.64,82.14z"/>
		<path class="st2" d="M239.31,79.22c-0.75,0.44-1.48,0.91-2.2,1.4c-0.35,0.25-0.7,0.49-1.03,0.77c-0.16,0.13-0.35,0.25-0.49,0.4
			l-0.46,0.43l-0.03,0.02l-0.05,0.03c-1.33,0.69-2.62,1.46-3.88,2.31c-1.24,0.83-2.46,1.7-3.59,2.67c-1.14,0.95-2.21,1.99-3.15,3.11
			c-0.94,1.12-1.74,2.34-2.29,3.63c-0.54,1.28-0.84,2.67-0.75,4.02c0.12,1.35,0.57,2.67,1.26,3.89c0.4,0.59,0.74,1.19,1.21,1.74
			c0.46,0.57,0.95,1.11,1.46,1.63c1,1.03,2.12,1.98,3.33,2.73c1.19,0.76,2.49,1.34,3.83,1.59c0.68,0.13,1.34,0.14,2.02,0.12
			c0.67-0.09,1.34-0.19,1.97-0.44c1.29-0.44,2.5-1.2,3.57-2.14c0.27-0.23,0.52-0.5,0.78-0.74l0.19-0.19l0.02-0.03
			c0.01,0-0.07,0.09-0.03,0.05l0-0.02l0.05-0.06l0.08-0.11l0.35-0.44c0.47-0.58,0.91-1.17,1.38-1.78c0.45-0.59,0.91-1.19,1.34-1.81
			c0.44-0.61,0.89-1.2,1.3-1.83c0.84-1.26,1.69-2.49,2.47-3.78c0.38-0.64,0.8-1.27,1.15-1.92l1.07-1.99
			c0.18-0.33,0.37-0.65,0.53-0.99l0.46-1.02l0.94-2.05l0,0.03c0.04-0.19,0.08-0.4,0.12-0.6c0.02-0.21,0.05-0.41,0.05-0.62
			c0.02-0.2,0.02-0.41,0.02-0.62l-0.01-0.31c0.01-0.1-0.01-0.21-0.01-0.32c-0.02-0.21-0.04-0.42-0.05-0.63l-0.13-0.62
			c-0.05-0.21-0.11-0.42-0.18-0.61l-0.2-0.61l0.26,0.58c0.11,0.18,0.19,0.38,0.25,0.59l0.21,0.62c0.04,0.21,0.09,0.42,0.12,0.64
			c0.03,0.11,0.05,0.21,0.06,0.32l0.03,0.33c0.03,0.22,0.06,0.43,0.06,0.65c0,0.23,0,0.45-0.02,0.66c0,0.22-0.03,0.43-0.06,0.67
			v0.01l-0.01,0.02l-0.76,2.15l-0.39,1.08c-0.14,0.37-0.32,0.71-0.46,1.05l-0.96,2.08c-0.31,0.7-0.7,1.35-1.05,2.03
			c-0.38,0.67-0.71,1.36-1.12,2.01l-1.18,1.96c-0.39,0.65-0.82,1.28-1.24,1.92c-0.41,0.64-0.84,1.27-1.28,1.9
			c-0.44,0.63-0.91,1.25-1.37,1.86l-0.33,0.46l-0.1,0.12l-0.05,0.05l0,0.01l-0.05,0.06l-0.02,0.03l-0.21,0.21
			c-0.29,0.28-0.56,0.58-0.86,0.85c-1.15,1.09-2.54,2.03-4.12,2.61c-0.77,0.31-1.61,0.45-2.45,0.55c-0.85,0.05-1.69,0.03-2.51-0.12
			c-1.66-0.3-3.2-0.97-4.55-1.83c-1.35-0.87-2.56-1.92-3.66-3.05c-0.56-0.57-1.08-1.16-1.57-1.78c-0.49-0.61-0.92-1.33-1.33-2.01
			c-0.8-1.42-1.31-3.05-1.41-4.71c-0.06-1.67,0.34-3.33,1.03-4.79c0.69-1.47,1.64-2.76,2.7-3.92c1.06-1.16,2.25-2.18,3.5-3.1
			c1.24-0.92,2.53-1.76,3.86-2.51c1.34-0.74,2.71-1.44,4.14-2.02l-0.08,0.04l0.54-0.4c0.17-0.14,0.37-0.25,0.55-0.37
			c0.18-0.13,0.36-0.24,0.54-0.35c0.2-0.11,0.38-0.23,0.58-0.32C237.72,79.95,238.51,79.57,239.31,79.22z"/>
		<path class="st4" d="M233.35,88.17c0,0,4.8-4.61,8.96-3.64c0,0,1.75-0.08,3.69-1.35c0,0,2.9-1.46,5.1-0.19
			c0,0-1.28-3.96-7.12-1.36C243.98,81.62,236.83,81.7,233.35,88.17z"/>
		<path class="st5" d="M226.25,102.27c0,0,6.95,9.06,18.21-3.44c0,0-2.03,7.09-7.46,9.47C237,108.3,230.83,111.56,226.25,102.27z"/>
		<g>
			<path class="st1" d="M236.95,89.98c-0.21,0.22-0.76,0.04-1.21-0.38c-0.44-0.43-0.63-0.95-0.43-1.18c0.23-0.2,0.76-0.03,1.2,0.39
				C236.95,89.24,237.15,89.76,236.95,89.98z"/>
			<path class="st2" d="M234.85,88.14c0,0,1.43,1.92,2.35,2.14C237.2,90.27,234.63,91.16,234.85,88.14z"/>
		</g>
		<g>
			<path class="st1" d="M246.24,92.97c-0.24,0.25-0.83,0.06-1.35-0.42c-0.49-0.48-0.71-1.08-0.47-1.32
				c0.24-0.24,0.84-0.05,1.33,0.43C246.26,92.13,246.49,92.72,246.24,92.97z"/>
			<path class="st2" d="M243.9,90.9c0,0,1.6,2.14,2.65,2.39C246.55,93.29,243.66,94.29,243.9,90.9z"/>
		</g>
		<g>
			<path class="st1" d="M244.81,84.66c-0.21,0.23-0.74,0.04-1.17-0.37c-0.46-0.42-0.63-0.94-0.44-1.16c0.2-0.21,0.73-0.05,1.19,0.37
				C244.82,83.93,245.01,84.45,244.81,84.66z"/>
			<path class="st2" d="M242.72,82.85c0,0,1.42,1.89,2.35,2.11C245.07,84.95,242.5,85.84,242.72,82.85z"/>
		</g>
		<g>
			<path class="st1" d="M234.95,97.03c-0.2,0.21-0.71,0.04-1.18-0.38c-0.43-0.43-0.63-0.94-0.43-1.16c0.21-0.22,0.74-0.04,1.19,0.38
				C234.99,96.3,235.19,96.81,234.95,97.03z"/>
			<path class="st2" d="M232.89,95.21c0,0,1.43,1.88,2.33,2.09C235.22,97.3,232.68,98.21,232.89,95.21z"/>
		</g>
		<g>
			<path class="st1" d="M240.66,99.89c-0.17,0.18-0.59,0.04-0.95-0.3c-0.37-0.35-0.53-0.76-0.35-0.92c0.16-0.19,0.59-0.04,0.95,0.29
				C240.66,99.3,240.84,99.71,240.66,99.89z"/>
			<path class="st2" d="M238.99,98.43c0,0,1.14,1.5,1.87,1.69C240.86,100.12,238.82,100.82,238.99,98.43z"/>
		</g>
		<g>
			<path class="st1" d="M235.4,105.02c-0.2,0.2-0.7,0.03-1.1-0.35c-0.43-0.42-0.6-0.91-0.41-1.1c0.19-0.21,0.69-0.06,1.12,0.35
				C235.41,104.32,235.59,104.81,235.4,105.02z"/>
			<path class="st2" d="M233.45,103.3c0,0,1.32,1.78,2.2,1.97C235.65,105.27,233.24,106.13,233.45,103.3z"/>
		</g>
		<g>
			<path class="st1" d="M227.73,100.34c-0.2,0.19-0.7,0.04-1.11-0.35c-0.43-0.41-0.6-0.89-0.41-1.09c0.2-0.21,0.7-0.05,1.12,0.35
				C227.75,99.66,227.94,100.14,227.73,100.34z"/>
			<path class="st2" d="M225.78,98.63c0,0,1.32,1.79,2.2,1.99C227.98,100.62,225.57,101.44,225.78,98.63z"/>
		</g>
		<polygon class="st6" points="109.32,92.19 114.82,77.6 91.82,31.97 76.87,0.59 62.01,0.59 		"/>
		<polygon class="st6" points="70.38,20.03 59.26,19.41 44.44,68.38 30.88,113.35 43.24,113.35 		"/>
		<path class="st6" d="M201.2,106.43c-2.15-2.95-4.42-6.2-6.85-9.74c-2.44-3.57-4.95-7.28-7.57-11.17
			c-2.62-3.88-5.14-7.59-7.56-11.13c-2.43-3.57-4.63-6.81-6.61-9.76c-1.95-2.95-3.49-5.25-4.62-6.89c2.71-0.43,5.74-1.33,9.04-2.71
			c3.31-1.35,6.43-3.26,9.31-5.73c2.9-2.46,5.34-5.58,7.36-9.35c2.01-3.77,3.01-8.27,3.01-13.51c0-4.91-0.77-9.02-2.31-12.3
			c-1.54-3.27-3.63-5.92-6.29-7.95c-2.67-2.02-5.76-3.47-9.33-4.34c-3.54-0.87-7.29-1.31-11.2-1.31c-2.71,0-5.38,0.14-8,0.41
			c-2.6,0.26-5.27,0.4-7.99,0.4c-2.63,0-3.64,0.33-6.12,0.2c0.06,0.13,0.13,0.27,0.2,0.42c0.5,1.35,1.33,2.53,2.07,3.73
			c0.29-0.1,0.57-0.16,0.9-0.16c1.08,0,2.03,0.69,2.43,1.65c1.05-0.12,2.2-0.23,3.47-0.34c2.14-0.15,4.87-0.24,8.11-0.24
			c2.43,0,4.93,0.3,7.44,0.91c2.51,0.59,4.87,1.7,7,3.35c2.15,1.64,3.92,3.86,5.26,6.63c1.35,2.8,2.04,6.31,2.04,10.57
			c0,4.92-0.88,9-2.59,12.21c-1.72,3.23-3.91,5.8-6.51,7.7c-2.62,1.92-6.45,1.21-9.59,1.96c-1.55,0.39-5.36,1.11-8.52,1.36
			c-0.09,0.83-0.54,1.61-1.32,2.01c-0.16,0.74-0.57,1.44-1.29,1.81c1.27,2.96,3.7,8.08,8.86,17.29c3.1,5.5,7.13,10.4,10.59,15.64
			c3.46,5.24,6.6,10.18,9.46,14.76c2.82,4.59,5.04,8.23,6.45,10.52c1.3-0.04,4.13-0.03,5.54-0.03l6.81,0.03c1.4,0,2.89-0.05,4.24,0
			C205.25,111.81,203.35,109.37,201.2,106.43z"/>
		<polygon class="st6" points="157.44,1.11 144.72,1.62 122.1,61.91 102.74,113.35 116.58,113.35 		"/>
		
			<linearGradient id="SVGID_2_" gradientUnits="userSpaceOnUse" x1="-126.4941" y1="-62.0997" x2="114.8858" y2="-62.0997" gradientTransform="matrix(1 0 0 1 129.2168 141.6658)">
			<stop  offset="0" style="stop-color:#FFF33E"/>
			<stop  offset="6.929024e-03" style="stop-color:#FFEF3D"/>
			<stop  offset="0.0728" style="stop-color:#FFDB31"/>
			<stop  offset="0.1403" style="stop-color:#FFCD28"/>
			<stop  offset="0.2095" style="stop-color:#FFC523"/>
			<stop  offset="0.2832" style="stop-color:#FFC222"/>
			<stop  offset="0.6565" style="stop-color:#F78F3D"/>
		</linearGradient>
		<path class="st7" d="M35.9,79.69C24.95,84.66,13.87,90.33,2.72,96.61c1.67,4.47,3.02,9.23,4.04,14.23
			c8.88-5.36,17.76-10.35,26.6-14.92c80.21-42.19,156.04-50.92,210.3-26.24l0.44-0.6C193.58,38.89,119.15,40.87,35.9,79.69"/>
		<g>
			<g>
				<path class="st8" d="M63.71,127v2.98H48.69v43.23h-6.98v-43.23H26.65V127H63.71z"/>
				<path class="st8" d="M84.54,125.94l19.56,47.28h-7.09l-6.36-15.43h-17.8l-6.56,15.43H62.8l20.01-47.28H84.54z M74.07,154.8h15.3
					l-7.54-18.29L74.07,154.8z"/>
				<path class="st8" d="M107.22,127h14.38c2.51,0,4.7,0.3,6.58,0.9c1.88,0.6,3.44,1.43,4.71,2.5c1.25,1.07,2.19,2.34,2.83,3.82
					c0.64,1.47,0.96,3.08,0.96,4.83c0,1.44-0.26,2.78-0.74,4.03c-0.48,1.25-1.17,2.37-2.06,3.38c-0.89,1-1.96,1.88-3.22,2.62
					c-1.24,0.74-2.63,1.32-4.14,1.71l15.12,22.43h-8.08l-14.44-21.73h-4.89v21.73h-6.98V127z M114.2,149.16h4.03
					c1.57,0,3.02-0.23,4.33-0.69c1.33-0.46,2.47-1.12,3.45-1.97c0.97-0.85,1.73-1.88,2.28-3.1c0.54-1.22,0.83-2.58,0.83-4.08
					c0-1.38-0.22-2.65-0.68-3.8c-0.42-1.17-1.03-2.16-1.81-2.99c-0.76-0.83-1.7-1.47-2.77-1.94c-1.08-0.46-2.25-0.69-3.52-0.69
					h-6.14V149.16z"/>
				<path class="st8" d="M144.58,127h6.97v46.22h-6.97V127z"/>
				<path class="st8" d="M159.73,127h7.14l16.16,35.46h0.33L199.22,127h7.01v46.22h-7.01v-37.86h-0.23l-17.03,37.86h-1.43
					l-17.23-37.59h-0.49v37.59h-3.07V127z"/>
			</g>
		</g>
		
			<linearGradient id="SVGID_3_" gradientUnits="userSpaceOnUse" x1="114.4924" y1="-91.5784" x2="149.3491" y2="-91.5784" gradientTransform="matrix(1 0 0 1 86.5156 184.3668)">
			<stop  offset="0" style="stop-color:#FFF33E"/>
			<stop  offset="0.0144" style="stop-color:#FFEF3D"/>
			<stop  offset="0.1513" style="stop-color:#FFDB31"/>
			<stop  offset="0.2914" style="stop-color:#FFCD28"/>
			<stop  offset="0.4352" style="stop-color:#FFC523"/>
			<stop  offset="0.5883" style="stop-color:#FFC222"/>
			<stop  offset="1" style="stop-color:#FFF6F1"/>
		</linearGradient>
		<path class="st9" d="M227.27,86.04c0,0-5.81-2.29-8.21-3.38c0,0-11.75-5.94-16.36,4.46c0,0-3.51,8.2-0.43,11.87l4.73,3.25
			l2.74,0.53c0,0,13.18,2.46,17.24,1.68c0,0,11.01-1.27,8.53-11.06c0,0-0.89-1.64-2.87-2.53C232.63,90.86,231.85,87.26,227.27,86.04
			z"/>
		<path class="st2" d="M231.17,86.78c-0.76-0.42-1.54-0.82-2.33-1.18c-0.39-0.17-0.78-0.36-1.18-0.51c-0.21-0.07-0.4-0.16-0.61-0.22
			l-0.62-0.19l-0.02,0l-0.02-0.02c-1.28-0.8-2.62-1.51-3.97-2.16c-1.37-0.65-2.75-1.25-4.17-1.73c-1.41-0.49-2.86-0.88-4.34-1.11
			c-1.46-0.24-2.95-0.3-4.38-0.09c-1.43,0.2-2.82,0.68-3.97,1.49c-1.16,0.81-2.09,1.93-2.79,3.18c-0.69,1.26-1.2,2.65-1.56,4.08
			c-0.36,1.42-0.6,2.88-0.62,4.33c-0.02,1.44,0.15,2.89,0.65,4.21c0.25,0.66,0.58,1.27,0.99,1.85c0.42,0.55,0.89,1.08,1.45,1.51
			c1.09,0.9,2.41,1.53,3.81,1.95c0.34,0.11,0.71,0.19,1.06,0.29l0.28,0.06l0.02,0.01c-0.08-0.01-0.01,0-0.02,0h0.02l0.06,0.01
			l0.13,0.03l0.57,0.06c0.75,0.1,1.5,0.17,2.25,0.24c0.74,0.08,1.5,0.15,2.24,0.2c0.76,0.05,1.5,0.13,2.27,0.15
			c1.51,0.05,3.02,0.13,4.53,0.08c0.76-0.01,1.52,0.03,2.27-0.04l2.25-0.14c0.38-0.02,0.76-0.02,1.13-0.07l1.13-0.15l2.25-0.31
			l-0.02,0.01c0.19-0.07,0.39-0.14,0.59-0.23c0.18-0.08,0.38-0.18,0.56-0.29c0.18-0.09,0.38-0.19,0.54-0.32
			c0.18-0.11,0.36-0.22,0.53-0.36l0.51-0.39l0.46-0.45c0.15-0.14,0.3-0.3,0.43-0.47l0.4-0.5l-0.37,0.53
			c-0.11,0.18-0.25,0.36-0.39,0.51l-0.43,0.48l-0.48,0.44c-0.17,0.16-0.34,0.27-0.51,0.41c-0.18,0.13-0.35,0.25-0.54,0.36
			c-0.19,0.11-0.38,0.22-0.58,0.33c-0.19,0.11-0.4,0.19-0.59,0.27h-0.01l0,0l-2.27,0.44l-1.11,0.21c-0.39,0.07-0.77,0.1-1.14,0.15
			l-2.28,0.24c-0.77,0.08-1.53,0.08-2.29,0.12c-1.53,0.1-3.06,0.07-4.59,0.07c-0.76,0.01-1.52-0.05-2.28-0.07
			c-0.76-0.02-1.53-0.07-2.29-0.12c-0.76-0.05-1.53-0.12-2.29-0.21l-0.58-0.05l-0.13-0.02l-0.07-0.01l-0.07-0.01l-0.02-0.02
			l-0.3-0.06c-0.38-0.1-0.76-0.17-1.14-0.28c-1.52-0.43-3-1.09-4.26-2.11c-0.65-0.48-1.19-1.1-1.69-1.75
			c-0.47-0.67-0.87-1.38-1.17-2.14c-0.57-1.52-0.78-3.13-0.75-4.69c0.02-1.58,0.32-3.12,0.69-4.63c0.39-1.5,0.93-2.97,1.71-4.37
			c0.78-1.38,1.88-2.64,3.21-3.54c1.35-0.91,2.94-1.43,4.5-1.61c1.58-0.17,3.16-0.05,4.68,0.25c1.53,0.3,3.01,0.75,4.44,1.3
			c1.43,0.55,2.83,1.2,4.17,1.93c1.34,0.73,2.64,1.52,3.9,2.41l-0.06-0.02l0.63,0.22c0.2,0.08,0.41,0.18,0.6,0.27
			c0.2,0.08,0.41,0.17,0.59,0.27c0.2,0.11,0.4,0.2,0.58,0.3C229.7,85.85,230.44,86.3,231.17,86.78z"/>
		
			<linearGradient id="SVGID_4_" gradientUnits="userSpaceOnUse" x1="115.7085" y1="-89.5774" x2="130.5079" y2="-89.5774" gradientTransform="matrix(1 0 0 1 86.5156 184.3668)">
			<stop  offset="0" style="stop-color:#FFF33E"/>
			<stop  offset="0.1333" style="stop-color:#FFF38A;stop-opacity:0.9458"/>
			<stop  offset="0.2571" style="stop-color:#FFF4B8;stop-opacity:0.8955"/>
			<stop  offset="0.3619" style="stop-color:#FFF5D7;stop-opacity:0.8529"/>
			<stop  offset="0.4436" style="stop-color:#FFF6EA;stop-opacity:0.8197"/>
			<stop  offset="0.4921" style="stop-color:#FFF6F1;stop-opacity:0.8"/>
			<stop  offset="0.5445" style="stop-color:#FFEACA;stop-opacity:0.8206"/>
			<stop  offset="0.6057" style="stop-color:#FFDFA2;stop-opacity:0.8447"/>
			<stop  offset="0.6687" style="stop-color:#FFD681;stop-opacity:0.8695"/>
			<stop  offset="0.7322" style="stop-color:#FFCF64;stop-opacity:0.8945"/>
			<stop  offset="0.7964" style="stop-color:#FFC94A;stop-opacity:0.9198"/>
			<stop  offset="0.8617" style="stop-color:#FFC535;stop-opacity:0.9455"/>
			<stop  offset="0.9287" style="stop-color:#FFC327;stop-opacity:0.9719"/>
			<stop  offset="1" style="stop-color:#FFC222"/>
		</linearGradient>
		<path class="st10" d="M204.6,87.66c0,0-4.15,10.61,12.42,13.71c0,0-7.13,1.95-11.99-1.41C205.04,99.95,199.01,96.37,204.6,87.66z"
			/>
		<g>
			<path class="st1" d="M213.62,92.34c-0.28-0.05-0.4-0.6-0.28-1.19c0.15-0.6,0.49-1.04,0.78-0.97c0.27,0.06,0.43,0.61,0.27,1.2
				C214.28,91.98,213.93,92.4,213.62,92.34z"/>
			<path class="st2" d="M214.12,89.63c0,0-0.89,2.19-0.6,3.09C213.52,92.72,211.45,91,214.12,89.63z"/>
		</g>
		<g>
			<path class="st1" d="M214.12,98.67c-0.23-0.05-0.33-0.48-0.22-0.97c0.09-0.47,0.39-0.83,0.62-0.77c0.24,0.04,0.34,0.49,0.24,0.96
				C214.64,98.37,214.36,98.72,214.12,98.67z"/>
			<path class="st2" d="M214.53,96.49c0,0-0.71,1.75-0.49,2.48C214.04,98.98,212.37,97.6,214.53,96.49z"/>
		</g>
		<g>
			<path class="st1" d="M207.02,96.86c-0.31-0.06-0.42-0.57-0.31-1.13c0.15-0.56,0.47-0.97,0.75-0.92c0.25,0.07,0.38,0.56,0.25,1.14
				C207.59,96.52,207.29,96.93,207.02,96.86z"/>
			<path class="st2" d="M207.46,94.32c0,0-0.84,2.05-0.54,2.89C206.92,97.21,204.94,95.61,207.46,94.32z"/>
		</g>
		<g>
			<path class="st1" d="M207.02,87.91c-0.25-0.07-0.39-0.57-0.25-1.13c0.09-0.56,0.44-0.98,0.72-0.92c0.26,0.07,0.4,0.58,0.26,1.14
				C207.63,87.57,207.31,87.97,207.02,87.91z"/>
			<path class="st2" d="M207.5,85.36c0,0-0.86,2.05-0.56,2.89C206.93,88.25,204.96,86.65,207.5,85.36z"/>
		</g>
		
			<linearGradient id="SVGID_5_" gradientUnits="userSpaceOnUse" x1="126.5438" y1="-82.8736" x2="168.0418" y2="-82.8736" gradientTransform="matrix(1 0 0 1 86.5156 184.3668)">
			<stop  offset="0" style="stop-color:#FFF33E"/>
			<stop  offset="0.0144" style="stop-color:#FFEF3D"/>
			<stop  offset="0.1513" style="stop-color:#FFDB31"/>
			<stop  offset="0.2914" style="stop-color:#FFCD28"/>
			<stop  offset="0.4352" style="stop-color:#FFC523"/>
			<stop  offset="0.5883" style="stop-color:#FFC222"/>
			<stop  offset="1" style="stop-color:#FFF6F1"/>
		</linearGradient>
		<path class="st11" d="M243.07,92.31c0,0-7.2-1.96-10.18-2.96c0,0-14.6-5.52-18.71,7.36c0,0-3.09,10.12,1.01,14.09l5.99,3.2
			l3.32,0.31c0,0,15.89,1.21,20.57-0.24c0,0,12.86-2.91,8.64-14.14c0,0-1.24-1.83-3.69-2.65C250.01,97.3,248.61,93.18,243.07,92.31z
			"/>
		<path class="st2" d="M248.42,92.69c-0.96-0.38-1.92-0.73-2.91-1.04l-0.73-0.22c-0.25-0.07-0.5-0.14-0.74-0.2
			c-0.25-0.05-0.5-0.13-0.76-0.17l-0.73-0.12l-0.04-0.01l-0.07-0.03c-1.61-0.74-3.29-1.4-4.98-1.97c-1.7-0.56-3.4-1.07-5.14-1.44
			c-1.73-0.37-3.48-0.62-5.21-0.7c-1.74-0.07-3.48,0.05-5.09,0.49c-1.62,0.41-3.13,1.14-4.36,2.2c-1.21,1.08-2.12,2.46-2.77,4
			c-0.29,0.79-0.61,1.55-0.79,2.39c-0.19,0.83-0.37,1.68-0.49,2.54c-0.23,1.7-0.33,3.43-0.17,5.1c0.15,1.67,0.54,3.31,1.27,4.74
			c0.35,0.74,0.84,1.38,1.35,1.99c0.56,0.57,1.14,1.13,1.83,1.54c1.35,0.89,2.93,1.48,4.61,1.8c0.41,0.09,0.84,0.13,1.26,0.2
			l0.33,0.04l0.03,0.01c0.03,0-0.12-0.01-0.05,0h0.03l0.07,0l0.17,0.01l0.66,0.01c0.89,0.02,1.78,0.01,2.68,0.01
			c1.77,0,3.56-0.05,5.36-0.14c1.79-0.09,3.57-0.25,5.35-0.4c1.79-0.2,3.55-0.42,5.33-0.73c1.77-0.29,3.5-0.71,5.24-1.16l-0.04,0.01
			c0.2-0.09,0.44-0.21,0.65-0.33c0.22-0.11,0.44-0.24,0.64-0.38c0.22-0.13,0.42-0.28,0.61-0.43l0.3-0.23
			c0.1-0.07,0.18-0.17,0.27-0.25c0.19-0.17,0.37-0.33,0.56-0.51l0.51-0.57c0.17-0.19,0.31-0.39,0.45-0.6l0.42-0.63l-0.35,0.68
			c-0.11,0.23-0.23,0.46-0.4,0.67l-0.43,0.63c-0.16,0.2-0.34,0.39-0.51,0.59c-0.09,0.1-0.17,0.2-0.26,0.29l-0.3,0.27
			c-0.18,0.18-0.38,0.35-0.59,0.51c-0.2,0.16-0.41,0.33-0.64,0.47c-0.21,0.16-0.42,0.29-0.67,0.43l0,0l-0.03,0.02
			c-1.72,0.63-3.44,1.18-5.22,1.61c-1.75,0.46-3.56,0.78-5.35,1.1c-1.79,0.29-3.6,0.54-5.41,0.69c-1.81,0.17-3.62,0.31-5.45,0.39
			c-0.9,0.04-1.82,0.05-2.72,0.06l-0.71,0.01l-0.17-0.01h-0.09h-0.02l-0.1,0l-0.05,0l-0.35-0.04c-0.47-0.06-0.93-0.09-1.41-0.18
			c-1.88-0.32-3.77-0.92-5.45-1.99c-0.86-0.51-1.61-1.19-2.3-1.92c-0.65-0.75-1.25-1.57-1.71-2.45c-0.91-1.76-1.38-3.69-1.55-5.59
			c-0.17-1.9-0.04-3.79,0.22-5.65c0.15-0.92,0.33-1.84,0.57-2.75c0.21-0.92,0.59-1.83,0.93-2.72c0.77-1.77,1.93-3.43,3.45-4.71
			c1.53-1.27,3.39-2.09,5.27-2.52c1.89-0.4,3.8-0.45,5.66-0.29c1.86,0.16,3.67,0.52,5.45,1.03c1.77,0.5,3.5,1.09,5.18,1.81
			c1.67,0.72,3.31,1.5,4.9,2.41l-0.11-0.03l0.78,0.2c0.26,0.07,0.5,0.17,0.75,0.25c0.24,0.08,0.48,0.17,0.72,0.27
			c0.24,0.1,0.49,0.2,0.73,0.3C246.58,91.74,247.51,92.19,248.42,92.69z"/>
		
			<linearGradient id="SVGID_6_" gradientUnits="userSpaceOnUse" x1="128.6364" y1="-79.2551" x2="147.0772" y2="-79.2551" gradientTransform="matrix(1 0 0 1 86.5156 184.3668)">
			<stop  offset="0" style="stop-color:#FFF33E"/>
			<stop  offset="0.1333" style="stop-color:#FFF38A;stop-opacity:0.9458"/>
			<stop  offset="0.2571" style="stop-color:#FFF4B8;stop-opacity:0.8955"/>
			<stop  offset="0.3619" style="stop-color:#FFF5D7;stop-opacity:0.8529"/>
			<stop  offset="0.4436" style="stop-color:#FFF6EA;stop-opacity:0.8197"/>
			<stop  offset="0.4921" style="stop-color:#FFF6F1;stop-opacity:0.8"/>
			<stop  offset="0.5445" style="stop-color:#FFEACA;stop-opacity:0.8206"/>
			<stop  offset="0.6057" style="stop-color:#FFDFA2;stop-opacity:0.8447"/>
			<stop  offset="0.6687" style="stop-color:#FFD681;stop-opacity:0.8695"/>
			<stop  offset="0.7322" style="stop-color:#FFCF64;stop-opacity:0.8945"/>
			<stop  offset="0.7964" style="stop-color:#FFC94A;stop-opacity:0.9198"/>
			<stop  offset="0.8617" style="stop-color:#FFC535;stop-opacity:0.9455"/>
			<stop  offset="0.9287" style="stop-color:#FFC327;stop-opacity:0.9719"/>
			<stop  offset="1" style="stop-color:#FFC222"/>
		</linearGradient>
		<path class="st12" d="M217.15,97.11c0,0-3.55,13.07,16.45,14.61c0,0-8.17,3.21-14.35-0.14
			C219.24,111.58,211.66,108.14,217.15,97.11z"/>
		<g>
			<path class="st1" d="M240.42,109.15c-0.41-0.05-0.65-0.74-0.54-1.56c0.09-0.82,0.48-1.46,0.88-1.41
				c0.38,0.05,0.64,0.74,0.56,1.56C241.22,108.56,240.82,109.19,240.42,109.15z"/>
			<path class="st2" d="M240.68,105.46c0,0-0.88,3.04-0.37,4.18C240.31,109.64,237.28,107.66,240.68,105.46z"/>
		</g>
		<g>
			<path class="st1" d="M247.23,101.81c-0.35-0.04-0.57-0.67-0.5-1.39c0.08-0.72,0.44-1.28,0.8-1.24c0.35,0.04,0.57,0.67,0.49,1.39
				C247.94,101.29,247.58,101.85,247.23,101.81z"/>
			<path class="st2" d="M247.45,98.54c0,0-0.75,2.69-0.31,3.72C247.14,102.25,244.46,100.51,247.45,98.54z"/>
		</g>
		<g>
			<path class="st1" d="M228.41,101.5c-0.35-0.05-0.58-0.66-0.49-1.38c0.07-0.73,0.42-1.28,0.79-1.24c0.35,0.04,0.57,0.66,0.48,1.39
				C229.11,100.98,228.76,101.54,228.41,101.5z"/>
			<path class="st2" d="M228.65,98.24c0,0-0.79,2.69-0.32,3.71C228.33,101.95,225.65,100.2,228.65,98.24z"/>
		</g>
		<g>
			<path class="st1" d="M229.81,108.91c-0.27-0.03-0.46-0.51-0.39-1.1c0.06-0.57,0.35-1.04,0.63-1c0.29,0.03,0.47,0.53,0.4,1.1
				C230.39,108.5,230.1,108.94,229.81,108.91z"/>
			<path class="st2" d="M230.02,106.28c0,0-0.63,2.17-0.27,2.99C229.75,109.28,227.6,107.87,230.02,106.28z"/>
		</g>
		<g>
			<path class="st1" d="M221.17,107.68c-0.34-0.04-0.54-0.61-0.47-1.3c0.07-0.68,0.38-1.2,0.75-1.17c0.33,0.05,0.53,0.63,0.47,1.31
				C221.85,107.19,221.52,107.73,221.17,107.68z"/>
			<path class="st2" d="M221.39,104.62c0,0-0.74,2.54-0.32,3.49C221.07,108.1,218.55,106.46,221.39,104.62z"/>
		</g>
		<g>
			<path class="st1" d="M220.04,97.11c-0.33-0.05-0.56-0.63-0.48-1.31c0.07-0.69,0.42-1.21,0.75-1.17c0.34,0.04,0.54,0.61,0.45,1.31
				C220.71,96.61,220.37,97.15,220.04,97.11z"/>
			<path class="st2" d="M220.27,94.02c0,0-0.76,2.55-0.3,3.5C219.96,97.52,217.44,95.88,220.27,94.02z"/>
		</g>
	</g>
</g>
</svg>
